<svg width="60" height="62" viewBox="0 0 60 62" fill="none" xmlns="http://www.w3.org/2000/svg">
<g clip-path="url(#clip0)">
<path d="M29.5405 60.83C32.4804 60.83 35.4104 60.83 38.3504 60.83C38.9012 60.803 39.4219 60.5712 39.8105 60.18C42.5505 57.0933 45.2505 53.97 47.9104 50.81C48.2723 50.3276 48.4719 49.7429 48.4804 49.14C48.5504 45.58 48.6205 42.03 48.5405 38.48C48.5457 36.0546 48.986 33.6499 49.8405 31.38C50.6904 28.86 52.0005 27.26 54.6505 26.8C55.6505 26.62 56.4404 26.13 56.3504 24.8C56.36 24.0139 56.4437 23.2304 56.6004 22.46C57.0804 18.24 57.6004 14.02 58.0304 9.78999C58.0367 9.05752 57.7747 8.34808 57.2939 7.79545C56.8131 7.24282 56.1467 6.88519 55.4204 6.78999C52.2404 6.69999 49.0505 6.65999 45.8805 6.48999C45.2191 6.40647 44.6074 6.09534 44.1505 5.60999C43.1005 4.47999 42.2304 3.14999 41.2005 1.99999C40.8178 1.56571 40.286 1.29092 39.7104 1.22999C32.9371 1.18332 26.1604 1.18332 19.3804 1.22999C18.8574 1.26619 18.366 1.49407 18.0005 1.86999C16.9505 3.08999 16.0504 4.43999 15.0005 5.64999C14.5811 6.11297 14.0101 6.41088 13.3905 6.48999C10.2505 6.64999 7.11045 6.68999 3.97045 6.76999C3.57433 6.79654 3.18742 6.90146 2.83215 7.07865C2.47687 7.25584 2.1603 7.50179 1.90079 7.80223C1.64127 8.10267 1.44397 8.45164 1.32032 8.8289C1.19666 9.20617 1.14912 9.60422 1.18045 9.99999C1.73045 15 2.29045 20.1 2.79045 25.15C2.87045 25.92 3.07045 26.43 3.85045 26.56C7.00045 27 8.72045 28.94 9.38045 32C9.45045 32.32 9.67045 32.6 9.74045 32.92C10.0955 34.2135 10.3397 35.535 10.4705 36.87C10.5905 40.92 10.5305 44.97 10.6005 49.02C10.5968 49.6634 10.8002 50.291 11.1805 50.81C13.8105 53.94 16.4804 57.04 19.1805 60.08C19.6203 60.529 20.2127 60.7967 20.8405 60.83C23.7304 60.91 26.6205 60.83 29.5105 60.83H29.5405ZM29.5905 -1.01982e-05C33.1505 -1.01982e-05 36.7004 -1.01982e-05 40.2604 -1.01982e-05C40.841 0.0667745 41.3741 0.352977 41.7505 0.79999C42.7505 2.01999 43.6904 3.37999 44.7505 4.57999C45.17 5.04653 45.7467 5.34204 46.3704 5.40999C49.5905 5.56999 52.8105 5.63999 56.0405 5.67999C56.3816 5.6699 56.7198 5.74731 57.0226 5.90485C57.3254 6.06239 57.5829 6.29481 57.7705 6.57999C58.3335 7.2703 58.7374 8.07626 58.9535 8.94048C59.1695 9.8047 59.1924 10.7059 59.0205 11.58C58.3405 16.24 57.9005 20.93 57.4104 25.58C57.3105 26.58 57.0104 27.25 55.9804 27.42C52.9804 27.92 51.3104 29.68 50.5504 32.63C50.0705 34.0651 49.7879 35.5588 49.7104 37.07C49.7104 41 49.6505 44.93 49.6604 48.85C49.6795 49.4016 49.5875 49.9514 49.3899 50.4667C49.1924 50.9821 48.8933 51.4525 48.5104 51.85C45.7804 54.9 43.1604 58.04 40.4305 61.09C39.9643 61.5671 39.3365 61.8525 38.6704 61.89C32.6038 61.95 26.5271 61.95 20.4405 61.89C19.7332 61.8407 19.0682 61.5349 18.5704 61.03C15.7105 57.82 12.9205 54.55 10.1604 51.26C9.76065 50.7574 9.52968 50.1415 9.50045 49.5C9.41045 45.08 9.50045 40.65 9.28045 36.24C9.20045 34.71 8.40045 33.17 8.00045 31.58C7.84159 30.6243 7.3779 29.7457 6.67861 29.0752C5.97932 28.4048 5.08194 27.9785 4.12045 27.86C3.96045 27.86 3.81045 27.73 3.65045 27.71C2.04045 27.44 1.71045 26.37 1.58045 24.9C1.15045 19.8 0.56045 14.71 0.000450362 9.61999C-0.15955 7.99999 1.79045 5.72999 3.37045 5.68999C6.51045 5.60999 9.65045 5.56999 12.7905 5.41999C13.3741 5.34305 13.9121 5.06342 14.3105 4.62999C15.3105 3.40999 16.3104 2.11999 17.3104 0.80999C17.4832 0.54465 17.7232 0.329877 18.0061 0.18758C18.2889 0.0452819 18.6044 -0.019449 18.9205 -1.01982e-05C22.4804 -1.01982e-05 26.0005 -1.01982e-05 29.5905 -1.01982e-05Z" fill="black"/>
<path d="M26.1901 15.94C22.6001 15.48 19.1901 15.02 15.8001 14.64C15.0001 14.55 14.7201 14.32 14.7501 13.52C14.8501 12.2419 14.8501 10.958 14.7501 9.67998C14.6692 8.86544 14.7678 8.04307 15.0391 7.27077C15.3103 6.49847 15.7476 5.79503 16.3201 5.20998C16.6341 4.74981 17.094 4.40879 17.6255 4.24189C18.1571 4.07499 18.7293 4.09193 19.2501 4.28998V9.70998C26.061 11.0891 33.0792 11.0891 39.8901 9.70998V4.35998C40.3272 4.16699 40.8162 4.12515 41.2798 4.24104C41.7434 4.35694 42.1552 4.62398 42.4501 4.99998C44.3101 6.73998 44.6001 8.84998 44.3801 11.19C44.2801 12.25 44.6501 13.61 44.1101 14.3C43.5701 14.99 42.2201 14.76 41.2101 14.91C38.4701 15.3 35.7301 15.67 32.8901 16.06V45.2H26.1901V15.94Z" fill="black"/>
<path d="M14.3602 46.58C15.8602 46.58 17.3602 46.58 18.8802 46.58C19.5502 46.58 19.8802 46.79 19.8802 47.5C19.8802 51.18 19.8802 54.85 19.8802 58.5C19.8413 58.6884 19.7843 58.8725 19.7102 59.05C19.1702 58.41 18.7102 57.88 18.2602 57.33C16.4302 55.1 14.5702 52.89 12.7902 50.61C12.4064 50.1009 12.1866 49.487 12.1602 48.85C12.1002 45.42 12.1602 41.99 12.4102 38.43C12.7002 38.93 12.9902 39.43 13.2702 39.91C13.5502 40.39 13.8602 41 14.1602 41.54C15.0102 43.07 16.6602 44.54 14.0502 46.28L14.4002 46.56" fill="black"/>
<path d="M39.1006 58.77C39.1006 54.9767 39.1006 51.1867 39.1006 47.4C39.1006 47.12 39.1006 46.84 39.1906 46.4H44.5906C44.5906 46.15 44.5906 46.04 44.5906 46.01C43.0706 44.8 43.3206 43.57 44.3506 42.13C45.2006 40.95 45.8106 39.59 46.7806 38.38C46.7806 42.03 46.7806 45.69 46.7806 49.38C46.7593 49.7059 46.637 50.017 46.4306 50.27C44.0906 53.15 41.7306 56.02 39.3806 58.88L39.1106 58.8" fill="black"/>
<path d="M32.3703 53.38L32.7003 54.62L32.9803 54.69C33.1503 54.3 33.3303 53.92 33.5603 53.4H36.7703C36.7703 54.96 36.7703 56.51 36.7703 58.06C36.7703 58.26 36.2803 58.6 36.0203 58.6C31.7336 58.6 27.4403 58.6 23.1403 58.6C22.9667 58.5612 22.8066 58.4768 22.6765 58.3555C22.5465 58.2342 22.4511 58.0804 22.4003 57.91C22.3303 56.44 22.4003 54.96 22.4003 53.41H25.6603C26.0003 53.82 26.2703 54.16 26.5303 54.5L27.3703 53.39H32.4503" fill="black"/>
<path d="M44.1005 31C44.3405 31.35 44.6305 31.78 45.0505 32.38C46.5505 29.6 49.0505 27.85 49.7205 24.84L50.1005 25.04L49.2705 26.78C48.9398 27.3939 48.6492 28.0286 48.4005 28.68C48.2178 29.3562 48.0842 30.0446 48.0005 30.74C48.0005 30.9 48.0005 31.08 48.0005 31.23C46.624 35.4533 44.7508 39.4983 42.4205 43.28C42.3205 43.45 42.1105 43.54 41.9205 43.7C39.7405 41.99 36.6305 41.7 35.0205 39.19L36.4905 38.36L39.7605 39.45L43.2805 33.28L42.6705 33.36C42.1505 31.36 39.9505 31.1 38.7905 29.58L39.2105 28.84C41.0205 29.35 42.1505 31.17 44.1305 30.99" fill="black"/>
<path d="M14.71 31.43C15.2771 31.3465 15.8337 31.2024 16.37 31C17.45 30.42 18.49 29.74 19.64 29.05L20.28 29.83C19.08 31.28 16.94 31.6 16.28 33.63L15.64 33.49L15.54 33.62C16.74 35.57 17.95 37.51 19.28 39.62L22.52 38.62L23.93 39.42C22.4 42 19.29 42.23 17 44C16.7474 43.7592 16.5227 43.4909 16.33 43.2C14.8699 40.6664 13.5545 38.0523 12.39 35.37C11.575 33.729 11.1021 31.9394 11 30.11C11 29.04 10.1 27.95 9.6 26.87C9.29521 26.3352 9.0918 25.7487 9 25.14C9.1424 25.3257 9.26318 25.527 9.36 25.74C10.14 28.19 12.31 29.74 13.45 31.94C13.5839 32.1101 13.7765 32.2242 13.99 32.26C14.2426 32.0002 14.4766 31.7228 14.69 31.43" fill="black"/>
<path d="M8.5004 19.84C8.5004 21.24 8.4504 22.65 8.5004 24.05C8.5504 25.2 8.0704 25.65 6.9604 25.51C6.67074 25.49 6.38005 25.49 6.0904 25.51C3.8804 25.51 3.8404 25.46 3.6504 23.29C3.4204 20.78 3.1604 18.29 2.9204 15.77C2.7604 14 2.8504 13.91 4.5504 13.9C5.4604 13.9 6.3704 13.9 7.2804 13.9C8.1904 13.9 8.5204 14.28 8.5204 15.14C8.5204 16.71 8.5204 18.28 8.5204 19.85" fill="black"/>
<path d="M50.5407 19.55C50.5407 17.98 50.5407 16.42 50.5407 14.85C50.5407 14.14 50.8007 13.78 51.5407 13.78C52.7807 13.78 54.0207 13.71 55.2407 13.78C55.5807 13.78 56.1507 14.43 56.1307 14.78C55.8807 18.03 55.5507 21.26 55.1307 24.49C55.1307 24.8 54.5207 25.06 54.1907 25.33C54.1907 25.33 54.1107 25.33 54.0707 25.33C50.5407 25.52 50.5407 25.52 50.5107 22.01C50.5107 21.19 50.5107 20.36 50.5107 19.54" fill="black"/>
<path d="M31.9403 50.39C30.6603 49.19 29.3503 49.78 28.1803 49.69C27.9903 49.69 27.7903 50.06 27.4603 50.39H31.9403ZM37.0503 51V53.08C35.9803 53.08 34.9603 53.08 33.9503 53.08C33.7303 53.08 33.5503 52.77 33.3303 52.66C33.1103 52.55 32.7403 52.37 32.6503 52.45C31.0103 53.92 29.0703 52.73 27.3203 53.09C26.7203 52.09 26.3203 52.6 25.4803 52.99C24.6403 53.38 23.2403 53.1 22.0303 53.1V50.87C22.6123 50.8146 23.1983 50.8146 23.7803 50.87C25.1003 51.12 25.8903 50.28 26.7803 49.58C27.303 49.1779 27.9126 48.9039 28.5603 48.78C29.3413 48.695 30.1292 48.695 30.9103 48.78C31.231 48.7749 31.5442 48.8769 31.8003 49.07C32.3857 49.7367 33.1259 50.2495 33.9559 50.5634C34.7858 50.8772 35.6801 50.9825 36.5603 50.87C36.7285 50.8924 36.8931 50.9361 37.0503 51Z" fill="black"/>
<path d="M18.5705 24.37L12.0005 22.72L11.6505 22.61C8.51054 21.82 8.27054 21.41 9.00054 18C10.1908 17.7851 11.418 18.0434 12.4205 18.72C13.5328 19.3302 14.7452 19.7366 16.0005 19.92C19.0005 20.68 19.2405 21.03 18.6005 24.37" fill="black"/>
<path d="M40.29 24.29C40.29 23.18 40.29 22.2 40.29 21.24C40.3378 21.0581 40.4267 20.8897 40.5498 20.7475C40.6729 20.6054 40.8269 20.4933 41 20.42C42 20.08 43 19.93 44 19.58C45.14 19.16 46.2 18.51 47.35 18.13C48.2736 17.9204 49.214 17.7933 50.16 17.75V21.75L45.36 23C43.73 23.42 42.1 23.82 40.29 24.27" fill="black"/>
<path d="M39.7004 22.85C38.5404 22.85 37.4404 22.85 36.3404 22.85C36.0704 22.85 35.6304 22.5 35.6204 22.31C35.5604 20.54 35.6204 18.77 35.6204 17C35.6204 16.52 35.9704 16.37 36.6204 16.44H36.8704C39.8704 16.73 39.8704 16.73 39.8704 19C39.8704 20.14 39.8704 21.28 39.8704 22.42C39.8461 22.5686 39.8127 22.7155 39.7704 22.86" fill="black"/>
<path d="M23.4609 21.88C23.4609 23.03 23.4609 24.19 23.4609 25.34C23.4609 26 23.2209 26.28 22.5309 26.34C19.2109 26.61 19.2109 26.62 19.2109 23.34C19.2109 22.02 19.2109 20.71 19.2109 19.39C19.2109 18.67 19.3609 18.29 20.2109 18.11C24.3109 17.16 23.4009 17.26 23.5009 20.67C23.5009 21.09 23.5009 21.5 23.5009 21.91" fill="black"/>
<path d="M56.0009 13.32H51.2109C51.7509 12.06 51.2909 10.32 53.4209 10.03L52.4209 9.67C52.0909 8.26 52.4209 7.15 53.3409 7.03C53.6068 7.03502 53.8683 7.09856 54.1068 7.21608C54.3453 7.33361 54.555 7.50225 54.7209 7.71C55.2709 8.46 54.8609 9.55 53.8409 10.2C55.6809 10.49 55.4709 12.05 56.0609 13.32" fill="black"/>
<path d="M3.08008 13.35C3.55008 12.07 3.54008 10.66 5.63008 10.26C3.80008 9.83998 4.00008 8.78998 4.32008 7.92998C4.48687 7.69829 4.71091 7.51383 4.97033 7.39464C5.22974 7.27545 5.51564 7.22561 5.80008 7.24998C7.03008 7.58998 6.90008 8.68998 6.80008 9.73998L5.57008 10.12C7.30008 11.5 7.30008 11.5 7.74008 13.35H3.08008Z" fill="black"/>
<path d="M50.0909 15.94C50.2509 17.41 49.8309 17.59 47.9609 16.79L50.0909 15.94Z" fill="black"/>
<path d="M11 17.21C9.13001 17.59 8.87001 17.48 9.00001 16.07L11.16 16.84C11.16 16.96 11.08 17.09 11.03 17.21" fill="black"/>
</g>
<defs>
<clipPath id="clip0">
<rect width="59.11" height="61.99" fill="white"/>
</clipPath>
</defs>
</svg>
