<svg width="34" height="34" viewBox="0 0 34 34" fill="none" xmlns="http://www.w3.org/2000/svg">
<path d="M22.0801 8.85889H12.1552C10.5711 8.85889 9.28223 10.1478 9.28223 11.7321V21.6578C9.28223 23.242 10.5711 24.5313 12.1552 24.5313H22.0801C23.6642 24.5313 24.9535 23.2424 24.9535 21.6578V11.7321C24.9535 10.1478 23.6646 8.85889 22.0801 8.85889ZM17.1177 21.8544C14.2732 21.8544 11.959 19.5399 11.959 16.6949C11.959 13.8503 14.2732 11.5358 17.1177 11.5358C19.9625 11.5358 22.2767 13.8503 22.2767 16.6949C22.2767 19.5396 19.9621 21.8544 17.1177 21.8544ZM22.4426 12.6025C21.7692 12.6025 21.2216 12.0549 21.2216 11.3819C21.2216 10.7088 21.7692 10.1612 22.4426 10.1612C23.1155 10.1612 23.6631 10.7088 23.6631 11.3819C23.6631 12.0549 23.1155 12.6025 22.4426 12.6025Z" fill="white"/>
<path d="M17.1178 13.7173C15.4757 13.7173 14.1387 15.0535 14.1387 16.6954C14.1387 18.3381 15.4757 19.6747 17.1178 19.6747C18.7606 19.6747 20.0965 18.3381 20.0965 16.6954C20.0965 15.0539 18.7602 13.7173 17.1178 13.7173Z" fill="white"/>
<path d="M17.1178 0C7.9226 0 0.467773 7.45483 0.467773 16.65C0.467773 25.8452 7.9226 33.3 17.1178 33.3C26.3129 33.3 33.7678 25.8452 33.7678 16.65C33.7678 7.45483 26.3129 0 17.1178 0ZM27.1332 21.6574C27.1332 24.4439 24.8668 26.7103 22.0802 26.7103H12.1553C9.36912 26.7103 7.10232 24.4439 7.10232 21.6574V11.7324C7.10232 8.94623 9.36912 6.67944 12.1553 6.67944H22.0802C24.8668 6.67944 27.1332 8.94623 27.1332 11.7324V21.6574Z" fill="white"/>
</svg>
