<svg width="61" height="64" viewBox="0 0 61 64" fill="none" xmlns="http://www.w3.org/2000/svg">
<path d="M40 11.7V32V33L40.9 32.5L60 22.2V42.2L21.2 63V21.5L40 11.7ZM40.6 10.7L20.6 21.2V64L60.7 42.6V21.2L40.6 32V10.7Z" fill="#E30613"/>
<path d="M20.8 0.7L39.6 10.9L21 20.6L1.99999 10.7L20.8 0.7ZM20.8 0L0.799988 10.6L21 21.2L40.9 10.9L20.8 0Z" fill="#E30613"/>
<path d="M20.9 64L0.799988 31.9L10.8 37.4L0.799988 10.6L21 21.2L20.9 64Z" fill="#E30613"/>
<path d="M34.7 56.4L32 57.8L32.1 49.7L26.8 52.5L26.7 60.6L24 62.1L24.3 43.1L27 41.6L26.9 49.3L32.2 46.5L32.3 38.8L35 37.3L34.7 56.4Z" fill="#E30613"/>
<path d="M47.3 30.8L47.1 43.3C47.1 45.4 46.6 47.3 45.7 49C44.8 50.7 43.5 52 42 52.8C40.5 53.6 39.3 53.7 38.4 53C37.5 52.3 37.1 50.9 37.1 48.9L37.3 36.2L40 34.7L39.8 47.3C39.8 48.5 40 49.3 40.4 49.7C40.8 50 41.4 50 42.1 49.6C43.6 48.8 44.4 47.2 44.5 44.9L44.7 32.2L47.3 30.8Z" fill="#E30613"/>
<path d="M49 48.4L49.3 29.4L53.9 26.9C55.5 26 56.7 25.8 57.5 26.3C58.3 26.7 58.7 27.8 58.7 29.5C58.7 30.4 58.5 31.3 58.2 32.2C57.9 33.1 57.4 33.9 56.8 34.5C57.5 34.4 58 34.6 58.4 35.1C58.8 35.6 59 36.4 58.9 37.5C58.9 39.3 58.5 40.9 57.6 42.3C56.8 43.7 55.6 44.8 54.1 45.6L49 48.4ZM51.9 35.8L53.9 34.7C55.3 33.9 56 32.8 56 31.2C56 30.3 55.8 29.8 55.5 29.6C55.2 29.4 54.6 29.5 53.9 29.9L52 30.9L51.9 35.8ZM51.8 38.6L51.7 43.7L54 42.4C54.6 42.1 55.1 41.6 55.5 40.9C55.9 40.3 56.1 39.6 56.1 38.8C56.1 37.1 55.5 36.5 54.3 37.2L51.8 38.6Z" fill="#E30613"/>
<path d="M60.7 21.2L40.6 10.7V32.1L60.7 21.2Z" fill="#E30613"/>
</svg>
