<svg width="140" height="70" viewBox="0 0 140 70" fill="none" xmlns="http://www.w3.org/2000/svg">
<path d="M85.1671 16.2591V29.9936H91.4512V31.6348H83.2667V16.2591H85.1671Z" fill="#001424"/>
<path d="M92.6678 23.9254C92.6678 21.19 93.0709 19.1889 93.8771 17.922C94.6833 16.6407 95.9502 16 97.6778 16C99.3623 16 100.593 16.6119 101.371 17.8356C102.148 19.0449 102.537 20.9597 102.537 23.5798C102.537 24.1701 102.522 24.7892 102.494 25.437C102.465 26.0849 102.393 26.7183 102.278 27.3374C102.177 27.9564 102.018 28.5467 101.802 29.1082C101.587 29.6552 101.291 30.1447 100.917 30.5766C100.557 30.9941 100.096 31.3253 99.535 31.57C98.9879 31.8147 98.3185 31.9371 97.5267 31.9371C96.7924 31.9371 96.159 31.8219 95.6263 31.5916C95.0936 31.3468 94.6473 31.0229 94.2874 30.6198C93.9275 30.2023 93.6396 29.7272 93.4236 29.1945C93.2077 28.6619 93.0421 28.1004 92.9269 27.5101C92.8262 26.9055 92.7542 26.3008 92.711 25.6962C92.6822 25.0771 92.6678 24.4868 92.6678 23.9254ZM94.5898 23.9686C94.5898 26.2576 94.8201 27.9132 95.2808 28.9354C95.7415 29.9432 96.4973 30.4471 97.5483 30.4471C98.0809 30.4471 98.5416 30.3247 98.9304 30.0799C99.3191 29.8352 99.6358 29.4537 99.8805 28.9354C100.14 28.4171 100.327 27.7549 100.442 26.9487C100.557 26.1425 100.615 25.1707 100.615 24.0333C100.615 22.8528 100.557 21.8522 100.442 21.0316C100.341 20.1966 100.168 19.52 99.9237 19.0017C99.6934 18.4834 99.3838 18.1091 98.9951 17.8788C98.6208 17.6484 98.1673 17.5332 97.6347 17.5332C97.1164 17.5332 96.6773 17.6412 96.3174 17.8572C95.9718 18.0731 95.6839 18.3611 95.4536 18.721C95.2232 19.0809 95.0505 19.4912 94.9353 19.9519C94.8201 20.3982 94.7337 20.8589 94.6761 21.334C94.6329 21.8091 94.6042 22.2769 94.5898 22.7376C94.5898 23.1983 94.5898 23.6086 94.5898 23.9686Z" fill="#001424"/>
<path d="M114.212 23.6878V31.6348H112.765V29.5617C112.161 31.1597 111.009 31.9587 109.31 31.9587C108.59 31.9587 107.979 31.8363 107.475 31.5916C106.971 31.3468 106.546 31.0229 106.201 30.6198C105.855 30.2023 105.582 29.7272 105.38 29.1945C105.178 28.6475 105.02 28.0788 104.905 27.4885C104.804 26.8983 104.739 26.308 104.711 25.7178C104.682 25.1131 104.667 24.5444 104.667 24.0117C104.667 23.4359 104.682 22.8384 104.711 22.2194C104.754 21.5859 104.833 20.974 104.948 20.3838C105.063 19.7935 105.229 19.2321 105.445 18.6994C105.661 18.1667 105.949 17.706 106.309 17.3173C106.669 16.9142 107.115 16.5975 107.647 16.3671C108.195 16.1224 108.842 16 109.591 16C110.988 16 112.067 16.3887 112.83 17.1661C113.593 17.9435 113.996 19.0737 114.04 20.5565H112.161C112.118 19.5776 111.873 18.8289 111.427 18.3107C110.995 17.7924 110.383 17.5332 109.591 17.5332C109.058 17.5332 108.612 17.6556 108.252 17.9004C107.892 18.1307 107.597 18.4402 107.367 18.8289C107.151 19.2033 106.985 19.6424 106.87 20.1462C106.769 20.6357 106.69 21.1324 106.633 21.6363C106.589 22.1402 106.568 22.6297 106.568 23.1048C106.568 23.5798 106.568 23.9973 106.568 24.3573C106.568 26.4736 106.805 28.0212 107.28 29.0002C107.77 29.9648 108.533 30.4471 109.569 30.4471C110.232 30.4471 110.75 30.2743 111.124 29.9288C111.513 29.5833 111.801 29.1586 111.988 28.6547C112.19 28.1508 112.312 27.6037 112.355 27.0135C112.413 26.4232 112.442 25.8761 112.442 25.3722V25.1995H109.418V23.6878H114.212Z" fill="#001424"/>
<path d="M118.361 16.2591V31.6348H116.461V16.2591H118.361Z" fill="#001424"/>
<path d="M130.089 26.3656C130.06 27.1718 129.96 27.9132 129.787 28.5899C129.614 29.2665 129.348 29.8568 128.988 30.3607C128.628 30.8646 128.153 31.2605 127.563 31.5484C126.987 31.8219 126.274 31.9587 125.425 31.9587C124.302 31.9587 123.416 31.714 122.769 31.2245C122.121 30.735 121.631 30.1159 121.3 29.3673C120.983 28.6043 120.782 27.7621 120.695 26.8407C120.609 25.9193 120.566 25.0267 120.566 24.1629C120.566 23.2703 120.609 22.3417 120.695 21.3772C120.782 20.4126 120.991 19.5344 121.322 18.7426C121.653 17.9364 122.142 17.2813 122.79 16.7774C123.452 16.2591 124.352 16 125.49 16C126.944 16 128.045 16.4103 128.794 17.2309C129.557 18.0371 129.952 19.2249 129.981 20.7941H128.102C128.088 20.3766 128.038 19.9735 127.951 19.5848C127.865 19.1961 127.721 18.8505 127.519 18.5482C127.318 18.2459 127.052 18.0011 126.72 17.814C126.389 17.6268 125.979 17.5332 125.49 17.5332C124.971 17.5332 124.539 17.6484 124.194 17.8788C123.848 18.1091 123.56 18.4114 123.33 18.7858C123.114 19.1457 122.948 19.5632 122.833 20.0383C122.718 20.5134 122.639 20.9956 122.596 21.4851C122.553 21.9746 122.524 22.4569 122.509 22.932C122.509 23.4071 122.509 23.8246 122.509 24.1845C122.509 24.53 122.509 24.9259 122.509 25.3722C122.524 25.8185 122.553 26.272 122.596 26.7327C122.653 27.1934 122.74 27.6469 122.855 28.0932C122.97 28.5395 123.136 28.9354 123.352 29.2809C123.568 29.6264 123.848 29.9072 124.194 30.1231C124.539 30.3247 124.964 30.4255 125.468 30.4255C127.21 30.4255 128.124 29.0722 128.21 26.3656H130.089Z" fill="#001424"/>
<path d="M90.4363 46.5865V40.2591H92.315V55.6348H90.4363V48.2277H85.1887V55.6348H83.3099V40.2591H85.1887V46.5865H90.4363Z" fill="#001424"/>
<path d="M96.5932 40.2591V50.6031C96.5932 51.0638 96.6148 51.5245 96.658 51.9852C96.7012 52.4315 96.8092 52.8418 96.9819 53.2161C97.1547 53.5761 97.4138 53.8712 97.7593 54.1015C98.1049 54.3175 98.5799 54.4255 99.1846 54.4255C99.7749 54.4255 100.243 54.3175 100.588 54.1015C100.934 53.8856 101.2 53.6049 101.387 53.2593C101.574 52.8994 101.69 52.4963 101.733 52.05C101.79 51.6037 101.819 51.143 101.819 50.6679V40.2591H103.72V50.6247C103.72 51.431 103.64 52.1652 103.482 52.8274C103.338 53.4753 103.079 54.0296 102.705 54.4902C102.345 54.9509 101.862 55.3109 101.258 55.57C100.667 55.8147 99.926 55.9371 99.0334 55.9371C98.256 55.9371 97.5938 55.8147 97.0467 55.57C96.4996 55.3253 96.0533 54.9869 95.7078 54.555C95.3623 54.1231 95.1103 53.612 94.952 53.0218C94.7936 52.4171 94.7144 51.7549 94.7144 51.035V40.2591H96.5932Z" fill="#001424"/>
<path d="M110.253 40.2591C110.915 40.2591 111.52 40.3239 112.067 40.4535C112.614 40.5831 113.082 40.799 113.471 41.1013C113.86 41.4037 114.155 41.8068 114.356 42.3107C114.572 42.8145 114.68 43.4408 114.68 44.1894C114.68 45.01 114.479 45.7083 114.076 46.2841C113.687 46.8456 113.14 47.2415 112.434 47.4719C113.341 47.6734 114.025 48.0981 114.486 48.746C114.961 49.3794 115.198 50.2072 115.198 51.2294C115.198 52.7123 114.767 53.8208 113.903 54.555C113.039 55.2749 111.866 55.6348 110.383 55.6348H106.064V40.2591H110.253ZM107.943 46.8672H109.886C110.836 46.8672 111.556 46.6801 112.046 46.3057C112.549 45.9314 112.801 45.2548 112.801 44.2758C112.801 43.7431 112.722 43.3112 112.564 42.9801C112.42 42.649 112.211 42.397 111.938 42.2243C111.664 42.0371 111.333 41.9148 110.944 41.8572C110.57 41.7996 110.16 41.7708 109.713 41.7708H107.943V46.8672ZM107.943 54.1447H109.368C109.757 54.1447 110.102 54.1375 110.404 54.1231C110.721 54.1087 110.98 54.0871 111.182 54.0583C111.858 53.9576 112.377 53.6624 112.737 53.173C113.111 52.6835 113.298 52.0284 113.298 51.2078C113.298 50.2 112.96 49.4226 112.283 48.8755C112.139 48.7604 111.995 48.6668 111.851 48.5948C111.722 48.5228 111.556 48.4652 111.355 48.4221C111.167 48.3789 110.937 48.3501 110.664 48.3357C110.404 48.3069 110.073 48.2925 109.67 48.2925H107.943V54.1447Z" fill="#001424"/>
<path d="M46 14.7V35V36L46.9 35.5L66 25.2V45.2L27.2 66V24.5L46 14.7ZM46.6 13.7L26.6 24.2V67L66.7 45.6V24.2L46.6 35V13.7Z" fill="#E30613"/>
<path d="M26.8 3.7L45.6 13.9L27 23.6L7.99999 13.7L26.8 3.7ZM26.8 3L6.79999 13.6L27 24.2L46.9 13.9L26.8 3Z" fill="#E30613"/>
<path d="M26.9 67L6.79999 34.9L16.8 40.4L6.79999 13.6L27 24.2L26.9 67Z" fill="#E30613"/>
<path d="M40.7 59.4L38 60.8L38.1 52.7L32.8 55.5L32.7 63.6L30 65.1L30.3 46.1L33 44.6L32.9 52.3L38.2 49.5L38.3 41.8L41 40.3L40.7 59.4Z" fill="#E30613"/>
<path d="M53.3 33.8L53.1 46.3C53.1 48.4 52.6 50.3 51.7 52C50.8 53.7 49.5 55 48 55.8C46.5 56.6 45.3 56.7 44.4 56C43.5 55.3 43.1 53.9 43.1 51.9L43.3 39.2L46 37.7L45.8 50.3C45.8 51.5 46 52.3 46.4 52.7C46.8 53 47.4 53 48.1 52.6C49.6 51.8 50.4 50.2 50.5 47.9L50.7 35.2L53.3 33.8Z" fill="#E30613"/>
<path d="M55 51.4L55.3 32.4L59.9 29.9C61.5 29 62.7 28.8 63.5 29.3C64.3 29.7 64.7 30.8 64.7 32.5C64.7 33.4 64.5 34.3 64.2 35.2C63.9 36.1 63.4 36.9 62.8 37.5C63.5 37.4 64 37.6 64.4 38.1C64.8 38.6 65 39.4 64.9 40.5C64.9 42.3 64.5 43.9 63.6 45.3C62.8 46.7 61.6 47.8 60.1 48.6L55 51.4ZM57.9 38.8L59.9 37.7C61.3 36.9 62 35.8 62 34.2C62 33.3 61.8 32.8 61.5 32.6C61.2 32.4 60.6 32.5 59.9 32.9L58 33.9L57.9 38.8ZM57.8 41.6L57.7 46.7L60 45.4C60.6 45.1 61.1 44.6 61.5 43.9C61.9 43.3 62.1 42.6 62.1 41.8C62.1 40.1 61.5 39.5 60.3 40.2L57.8 41.6Z" fill="#E30613"/>
<path d="M66.7 24.2L46.6 13.7V35.1L66.7 24.2Z" fill="#E30613"/>
<path d="M74.3 9V62.3" stroke="#E30613" stroke-width="0.5" stroke-miterlimit="10"/>
</svg>
